# xmcd
#
# Track frame offsets:
#	150
#	18969
#	37654
#	52922
#	70137
#	87098
#	101640
#	118998
#	141443
#	157548
#	173527
#	190625
#	210749
#	230939
#	243763
#	262211
#	301777
#	320856
#	335658
#	355751
#
# Disc length: 4978 seconds
#
# Revision: 1
# Processed by: cddbd v1.5.2PL0 Copyright (c) Steve Scherf et al.
# Submitted via: audiograbber 1.83.01
#
DISCID=13137014
DTITLE=Freddie King - Texas Flyer 1974 - 1976 Disc 1
DYEAR=2010
DGENRE=Blues
TTITLE0=Pack It Up
TTITLE1=My Credit Didn't Go Through
TTITLE2=I Got The Same Old Blues
TTITLE3=Only Getting Second best
TTITLE4=Texas Flyer
TTITLE5=Pulp Wood
TTITLE6=She's A Burglar
TTITLE7=I Had A Dream
TTITLE8=Come On ( Let The Good Times Roll )
TTITLE9=It's Your Move
TTITLE10=Shake Your Booty
TTITLE11=Sweet Home Chicago
TTITLE12=That's All Right
TTITLE13=Sugar Sweet
TTITLE14=TV Mama
TTITLE15=Gambling Woman Blues
TTITLE16=Boogie Funk
TTITLE17=It's Bettet To Have ( And Don't Need )
TTITLE18=Boogie Jump
TTITLE19=Sugar Sweet
EXTD=
EXTT0=
EXTT1=
EXTT2=
EXTT3=
EXTT4=
EXTT5=
EXTT6=
EXTT7=
EXTT8=
EXTT9=
EXTT10=
EXTT11=
EXTT12=
EXTT13=
EXTT14=
EXTT15=
EXTT16=
EXTT17=
EXTT18=
EXTT19=
PLAYORDER=
